<svg width="671" height="471" viewBox="0 0 671 471" fill="none" xmlns="http://www.w3.org/2000/svg">
<rect x="0.3" y="31.3" width="321.4" height="55.4" rx="8.7" fill="white" stroke="#CECECE" stroke-width="0.6"/>
<path d="M6.776 7.27V8.572H2.646V11.442H5.866V12.744H2.646V17H1.05V7.27H6.776ZM8.76708 8.264C8.47774 8.264 8.23508 8.166 8.03908 7.97C7.84308 7.774 7.74508 7.53133 7.74508 7.242C7.74508 6.95267 7.84308 6.71 8.03908 6.514C8.23508 6.318 8.47774 6.22 8.76708 6.22C9.04708 6.22 9.28508 6.318 9.48108 6.514C9.67708 6.71 9.77508 6.95267 9.77508 7.242C9.77508 7.53133 9.67708 7.774 9.48108 7.97C9.28508 8.166 9.04708 8.264 8.76708 8.264ZM9.55108 9.286V17H7.95508V9.286H9.55108ZM12.9425 10.406C13.1758 10.014 13.4838 9.71067 13.8665 9.496C14.2585 9.272 14.7205 9.16 15.2525 9.16V10.812H14.8465C14.2212 10.812 13.7452 10.9707 13.4185 11.288C13.1012 11.6053 12.9425 12.156 12.9425 12.94V17H11.3465V9.286H12.9425V10.406ZM19.2195 17.126C18.6129 17.126 18.0669 17.0187 17.5815 16.804C17.1055 16.58 16.7275 16.2813 16.4475 15.908C16.1675 15.5253 16.0182 15.1007 15.9995 14.634H17.6515C17.6795 14.9607 17.8335 15.236 18.1135 15.46C18.4029 15.6747 18.7622 15.782 19.1915 15.782C19.6395 15.782 19.9849 15.698 20.2275 15.53C20.4795 15.3527 20.6055 15.1287 20.6055 14.858C20.6055 14.5687 20.4655 14.354 20.1855 14.214C19.9149 14.074 19.4809 13.92 18.8835 13.752C18.3049 13.5933 17.8335 13.4393 17.4695 13.29C17.1055 13.1407 16.7882 12.912 16.5175 12.604C16.2562 12.296 16.1255 11.89 16.1255 11.386C16.1255 10.9753 16.2469 10.602 16.4895 10.266C16.7322 9.92067 17.0775 9.65 17.5255 9.454C17.9829 9.258 18.5055 9.16 19.0935 9.16C19.9709 9.16 20.6755 9.384 21.2075 9.832C21.7489 10.2707 22.0382 10.8727 22.0755 11.638H20.4795C20.4515 11.2927 20.3115 11.0173 20.0595 10.812C19.8075 10.6067 19.4669 10.504 19.0375 10.504C18.6175 10.504 18.2955 10.5833 18.0715 10.742C17.8475 10.9007 17.7355 11.1107 17.7355 11.372C17.7355 11.5773 17.8102 11.75 17.9595 11.89C18.1089 12.03 18.2909 12.142 18.5055 12.226C18.7202 12.3007 19.0375 12.3987 19.4575 12.52C20.0175 12.6693 20.4749 12.8233 20.8295 12.982C21.1935 13.1313 21.5062 13.3553 21.7675 13.654C22.0289 13.9527 22.1642 14.3493 22.1735 14.844C22.1735 15.2827 22.0522 15.6747 21.8095 16.02C21.5669 16.3653 21.2215 16.636 20.7735 16.832C20.3349 17.028 19.8169 17.126 19.2195 17.126ZM25.46 10.588V14.858C25.46 15.1473 25.5254 15.3573 25.656 15.488C25.796 15.6093 26.0294 15.67 26.356 15.67H27.336V17H26.076C25.3574 17 24.8067 16.832 24.424 16.496C24.0414 16.16 23.85 15.614 23.85 14.858V10.588H22.94V9.286H23.85V7.368H25.46V9.286H27.336V10.588H25.46ZM39.8378 17H38.2418L33.4398 9.734V17H31.8438V7.256H33.4398L38.2418 14.508V7.256H39.8378V17ZM41.1016 13.108C41.1016 12.3333 41.2603 11.6473 41.5776 11.05C41.9043 10.4527 42.3429 9.99067 42.8936 9.664C43.4536 9.328 44.0696 9.16 44.7416 9.16C45.3483 9.16 45.8756 9.28133 46.3236 9.524C46.7809 9.75733 47.1449 10.0513 47.4156 10.406V9.286H49.0256V17H47.4156V15.852C47.1449 16.216 46.7763 16.5193 46.3096 16.762C45.8429 17.0047 45.3109 17.126 44.7136 17.126C44.0509 17.126 43.4443 16.958 42.8936 16.622C42.3429 16.2767 41.9043 15.8007 41.5776 15.194C41.2603 14.578 41.1016 13.8827 41.1016 13.108ZM47.4156 13.136C47.4156 12.604 47.3036 12.142 47.0796 11.75C46.8649 11.358 46.5803 11.0593 46.2256 10.854C45.8709 10.6487 45.4883 10.546 45.0776 10.546C44.6669 10.546 44.2843 10.6487 43.9296 10.854C43.5749 11.05 43.2856 11.344 43.0616 11.736C42.8469 12.1187 42.7396 12.576 42.7396 13.108C42.7396 13.64 42.8469 14.1067 43.0616 14.508C43.2856 14.9093 43.5749 15.2173 43.9296 15.432C44.2936 15.6373 44.6763 15.74 45.0776 15.74C45.4883 15.74 45.8709 15.6373 46.2256 15.432C46.5803 15.2267 46.8649 14.928 47.0796 14.536C47.3036 14.1347 47.4156 13.668 47.4156 13.136ZM60.1599 9.16C60.7665 9.16 61.3079 9.286 61.7839 9.538C62.2692 9.79 62.6472 10.1633 62.9179 10.658C63.1979 11.1527 63.3379 11.75 63.3379 12.45V17H61.7559V12.688C61.7559 11.9973 61.5832 11.47 61.2379 11.106C60.8925 10.7327 60.4212 10.546 59.8239 10.546C59.2265 10.546 58.7505 10.7327 58.3959 11.106C58.0505 11.47 57.8779 11.9973 57.8779 12.688V17H56.2959V12.688C56.2959 11.9973 56.1232 11.47 55.7779 11.106C55.4325 10.7327 54.9612 10.546 54.3639 10.546C53.7665 10.546 53.2905 10.7327 52.9359 11.106C52.5905 11.47 52.4179 11.9973 52.4179 12.688V17H50.8219V9.286H52.4179V10.168C52.6792 9.85067 53.0105 9.60333 53.4119 9.426C53.8132 9.24867 54.2425 9.16 54.6999 9.16C55.3159 9.16 55.8665 9.29067 56.3519 9.552C56.8372 9.81333 57.2105 10.1913 57.4719 10.686C57.7052 10.2193 58.0692 9.85067 58.5639 9.58C59.0585 9.3 59.5905 9.16 60.1599 9.16ZM72.1388 12.954C72.1388 13.2433 72.1201 13.5047 72.0828 13.738H66.1888C66.2354 14.354 66.4641 14.8487 66.8748 15.222C67.2854 15.5953 67.7894 15.782 68.3868 15.782C69.2454 15.782 69.8521 15.4227 70.2068 14.704H71.9288C71.6954 15.4133 71.2708 15.9967 70.6548 16.454C70.0481 16.902 69.2921 17.126 68.3868 17.126C67.6494 17.126 66.9868 16.9627 66.3988 16.636C65.8201 16.3 65.3628 15.8333 65.0268 15.236C64.7001 14.6293 64.5368 13.9293 64.5368 13.136C64.5368 12.3427 64.6954 11.6473 65.0128 11.05C65.3394 10.4433 65.7921 9.97667 66.3708 9.65C66.9588 9.32333 67.6308 9.16 68.3868 9.16C69.1148 9.16 69.7634 9.31867 70.3328 9.636C70.9021 9.95333 71.3454 10.4013 71.6628 10.98C71.9801 11.5493 72.1388 12.2073 72.1388 12.954ZM70.4728 12.45C70.4634 11.862 70.2534 11.3907 69.8428 11.036C69.4321 10.6813 68.9234 10.504 68.3168 10.504C67.7661 10.504 67.2948 10.6813 66.9028 11.036C66.5108 11.3813 66.2774 11.8527 66.2028 12.45H70.4728Z" fill="#4F4F4F"/>
<rect x="349.3" y="31.3" width="321.4" height="55.4" rx="8.7" fill="white" stroke="#CECECE" stroke-width="0.6"/>
<path d="M351.646 15.712H354.936V17H350.05V7.27H351.646V15.712ZM355.439 13.108C355.439 12.3333 355.597 11.6473 355.915 11.05C356.241 10.4527 356.68 9.99067 357.231 9.664C357.791 9.328 358.407 9.16 359.079 9.16C359.685 9.16 360.213 9.28133 360.661 9.524C361.118 9.75733 361.482 10.0513 361.753 10.406V9.286H363.363V17H361.753V15.852C361.482 16.216 361.113 16.5193 360.647 16.762C360.18 17.0047 359.648 17.126 359.051 17.126C358.388 17.126 357.781 16.958 357.231 16.622C356.68 16.2767 356.241 15.8007 355.915 15.194C355.597 14.578 355.439 13.8827 355.439 13.108ZM361.753 13.136C361.753 12.604 361.641 12.142 361.417 11.75C361.202 11.358 360.917 11.0593 360.563 10.854C360.208 10.6487 359.825 10.546 359.415 10.546C359.004 10.546 358.621 10.6487 358.267 10.854C357.912 11.05 357.623 11.344 357.399 11.736C357.184 12.1187 357.077 12.576 357.077 13.108C357.077 13.64 357.184 14.1067 357.399 14.508C357.623 14.9093 357.912 15.2173 358.267 15.432C358.631 15.6373 359.013 15.74 359.415 15.74C359.825 15.74 360.208 15.6373 360.563 15.432C360.917 15.2267 361.202 14.928 361.417 14.536C361.641 14.1347 361.753 13.668 361.753 13.136ZM367.959 17.126C367.352 17.126 366.806 17.0187 366.321 16.804C365.845 16.58 365.467 16.2813 365.187 15.908C364.907 15.5253 364.758 15.1007 364.739 14.634H366.391C366.419 14.9607 366.573 15.236 366.853 15.46C367.142 15.6747 367.502 15.782 367.931 15.782C368.379 15.782 368.724 15.698 368.967 15.53C369.219 15.3527 369.345 15.1287 369.345 14.858C369.345 14.5687 369.205 14.354 368.925 14.214C368.654 14.074 368.22 13.92 367.623 13.752C367.044 13.5933 366.573 13.4393 366.209 13.29C365.845 13.1407 365.528 12.912 365.257 12.604C364.996 12.296 364.865 11.89 364.865 11.386C364.865 10.9753 364.986 10.602 365.229 10.266C365.472 9.92067 365.817 9.65 366.265 9.454C366.722 9.258 367.245 9.16 367.833 9.16C368.71 9.16 369.415 9.384 369.947 9.832C370.488 10.2707 370.778 10.8727 370.815 11.638H369.219C369.191 11.2927 369.051 11.0173 368.799 10.812C368.547 10.6067 368.206 10.504 367.777 10.504C367.357 10.504 367.035 10.5833 366.811 10.742C366.587 10.9007 366.475 11.1107 366.475 11.372C366.475 11.5773 366.55 11.75 366.699 11.89C366.848 12.03 367.03 12.142 367.245 12.226C367.46 12.3007 367.777 12.3987 368.197 12.52C368.757 12.6693 369.214 12.8233 369.569 12.982C369.933 13.1313 370.246 13.3553 370.507 13.654C370.768 13.9527 370.904 14.3493 370.913 14.844C370.913 15.2827 370.792 15.6747 370.549 16.02C370.306 16.3653 369.961 16.636 369.513 16.832C369.074 17.028 368.556 17.126 367.959 17.126ZM374.2 10.588V14.858C374.2 15.1473 374.265 15.3573 374.396 15.488C374.536 15.6093 374.769 15.67 375.096 15.67H376.076V17H374.816C374.097 17 373.546 16.832 373.164 16.496C372.781 16.16 372.59 15.614 372.59 14.858V10.588H371.68V9.286H372.59V7.368H374.2V9.286H376.076V10.588H374.2ZM388.577 17H386.981L382.179 9.734V17H380.583V7.256H382.179L386.981 14.508V7.256H388.577V17ZM389.841 13.108C389.841 12.3333 390 11.6473 390.317 11.05C390.644 10.4527 391.082 9.99067 391.633 9.664C392.193 9.328 392.809 9.16 393.481 9.16C394.088 9.16 394.615 9.28133 395.063 9.524C395.52 9.75733 395.884 10.0513 396.155 10.406V9.286H397.765V17H396.155V15.852C395.884 16.216 395.516 16.5193 395.049 16.762C394.582 17.0047 394.05 17.126 393.453 17.126C392.79 17.126 392.184 16.958 391.633 16.622C391.082 16.2767 390.644 15.8007 390.317 15.194C390 14.578 389.841 13.8827 389.841 13.108ZM396.155 13.136C396.155 12.604 396.043 12.142 395.819 11.75C395.604 11.358 395.32 11.0593 394.965 10.854C394.61 10.6487 394.228 10.546 393.817 10.546C393.406 10.546 393.024 10.6487 392.669 10.854C392.314 11.05 392.025 11.344 391.801 11.736C391.586 12.1187 391.479 12.576 391.479 13.108C391.479 13.64 391.586 14.1067 391.801 14.508C392.025 14.9093 392.314 15.2173 392.669 15.432C393.033 15.6373 393.416 15.74 393.817 15.74C394.228 15.74 394.61 15.6373 394.965 15.432C395.32 15.2267 395.604 14.928 395.819 14.536C396.043 14.1347 396.155 13.668 396.155 13.136ZM408.899 9.16C409.506 9.16 410.047 9.286 410.523 9.538C411.009 9.79 411.387 10.1633 411.657 10.658C411.937 11.1527 412.077 11.75 412.077 12.45V17H410.495V12.688C410.495 11.9973 410.323 11.47 409.977 11.106C409.632 10.7327 409.161 10.546 408.563 10.546C407.966 10.546 407.49 10.7327 407.135 11.106C406.79 11.47 406.617 11.9973 406.617 12.688V17H405.035V12.688C405.035 11.9973 404.863 11.47 404.517 11.106C404.172 10.7327 403.701 10.546 403.103 10.546C402.506 10.546 402.03 10.7327 401.675 11.106C401.33 11.47 401.157 11.9973 401.157 12.688V17H399.561V9.286H401.157V10.168C401.419 9.85067 401.75 9.60333 402.151 9.426C402.553 9.24867 402.982 9.16 403.439 9.16C404.055 9.16 404.606 9.29067 405.091 9.552C405.577 9.81333 405.95 10.1913 406.211 10.686C406.445 10.2193 406.809 9.85067 407.303 9.58C407.798 9.3 408.33 9.16 408.899 9.16ZM420.878 12.954C420.878 13.2433 420.86 13.5047 420.822 13.738H414.928C414.975 14.354 415.204 14.8487 415.614 15.222C416.025 15.5953 416.529 15.782 417.126 15.782C417.985 15.782 418.592 15.4227 418.946 14.704H420.668C420.435 15.4133 420.01 15.9967 419.394 16.454C418.788 16.902 418.032 17.126 417.126 17.126C416.389 17.126 415.726 16.9627 415.138 16.636C414.56 16.3 414.102 15.8333 413.766 15.236C413.44 14.6293 413.276 13.9293 413.276 13.136C413.276 12.3427 413.435 11.6473 413.752 11.05C414.079 10.4433 414.532 9.97667 415.11 9.65C415.698 9.32333 416.37 9.16 417.126 9.16C417.854 9.16 418.503 9.31867 419.072 9.636C419.642 9.95333 420.085 10.4013 420.402 10.98C420.72 11.5493 420.878 12.2073 420.878 12.954ZM419.212 12.45C419.203 11.862 418.993 11.3907 418.582 11.036C418.172 10.6813 417.663 10.504 417.056 10.504C416.506 10.504 416.034 10.6813 415.642 11.036C415.25 11.3813 415.017 11.8527 414.942 12.45H419.212Z" fill="#4F4F4F"/>
<rect x="0.3" y="135.3" width="670.4" height="55.4" rx="8.7" fill="white" stroke="#CECECE" stroke-width="0.6"/>
<path d="M2.646 115.558V118.414H6.006V119.716H2.646V122.698H6.426V124H1.05V114.256H6.426V115.558H2.646ZM17.4298 116.16C18.0365 116.16 18.5778 116.286 19.0538 116.538C19.5391 116.79 19.9171 117.163 20.1878 117.658C20.4678 118.153 20.6078 118.75 20.6078 119.45V124H19.0258V119.688C19.0258 118.997 18.8531 118.47 18.5078 118.106C18.1625 117.733 17.6911 117.546 17.0938 117.546C16.4965 117.546 16.0205 117.733 15.6658 118.106C15.3205 118.47 15.1478 118.997 15.1478 119.688V124H13.5658V119.688C13.5658 118.997 13.3931 118.47 13.0478 118.106C12.7025 117.733 12.2311 117.546 11.6338 117.546C11.0365 117.546 10.5605 117.733 10.2058 118.106C9.86046 118.47 9.6878 118.997 9.6878 119.688V124H8.0918V116.286H9.6878V117.168C9.94913 116.851 10.2805 116.603 10.6818 116.426C11.0831 116.249 11.5125 116.16 11.9698 116.16C12.5858 116.16 13.1365 116.291 13.6218 116.552C14.1071 116.813 14.4805 117.191 14.7418 117.686C14.9751 117.219 15.3391 116.851 15.8338 116.58C16.3285 116.3 16.8605 116.16 17.4298 116.16ZM21.8067 120.108C21.8067 119.333 21.9653 118.647 22.2827 118.05C22.6093 117.453 23.048 116.991 23.5987 116.664C24.1587 116.328 24.7747 116.16 25.4467 116.16C26.0533 116.16 26.5807 116.281 27.0287 116.524C27.486 116.757 27.85 117.051 28.1207 117.406V116.286H29.7307V124H28.1207V122.852C27.85 123.216 27.4813 123.519 27.0147 123.762C26.548 124.005 26.016 124.126 25.4187 124.126C24.756 124.126 24.1493 123.958 23.5987 123.622C23.048 123.277 22.6093 122.801 22.2827 122.194C21.9653 121.578 21.8067 120.883 21.8067 120.108ZM28.1207 120.136C28.1207 119.604 28.0087 119.142 27.7847 118.75C27.57 118.358 27.2853 118.059 26.9307 117.854C26.576 117.649 26.1933 117.546 25.7827 117.546C25.372 117.546 24.9893 117.649 24.6347 117.854C24.28 118.05 23.9907 118.344 23.7667 118.736C23.552 119.119 23.4447 119.576 23.4447 120.108C23.4447 120.64 23.552 121.107 23.7667 121.508C23.9907 121.909 24.28 122.217 24.6347 122.432C24.9987 122.637 25.3813 122.74 25.7827 122.74C26.1933 122.74 26.576 122.637 26.9307 122.432C27.2853 122.227 27.57 121.928 27.7847 121.536C28.0087 121.135 28.1207 120.668 28.1207 120.136ZM32.339 115.264C32.0496 115.264 31.807 115.166 31.611 114.97C31.415 114.774 31.317 114.531 31.317 114.242C31.317 113.953 31.415 113.71 31.611 113.514C31.807 113.318 32.0496 113.22 32.339 113.22C32.619 113.22 32.857 113.318 33.053 113.514C33.249 113.71 33.347 113.953 33.347 114.242C33.347 114.531 33.249 114.774 33.053 114.97C32.857 115.166 32.619 115.264 32.339 115.264ZM33.123 116.286V124H31.527V116.286H33.123ZM36.5144 113.64V124H34.9184V113.64H36.5144ZM47.5125 122.012H43.4385L42.7385 124H41.0725L44.5585 114.256H46.4065L49.8925 124H48.2125L47.5125 122.012ZM47.0645 120.71L45.4825 116.188L43.8865 120.71H47.0645ZM50.5762 120.108C50.5762 119.333 50.7349 118.647 51.0522 118.05C51.3789 117.453 51.8175 116.991 52.3682 116.664C52.9282 116.328 53.5489 116.16 54.2302 116.16C54.7342 116.16 55.2289 116.272 55.7142 116.496C56.2089 116.711 56.6009 117 56.8902 117.364V113.64H58.5002V124H56.8902V122.838C56.6289 123.211 56.2649 123.519 55.7982 123.762C55.3409 124.005 54.8135 124.126 54.2162 124.126C53.5442 124.126 52.9282 123.958 52.3682 123.622C51.8175 123.277 51.3789 122.801 51.0522 122.194C50.7349 121.578 50.5762 120.883 50.5762 120.108ZM56.8902 120.136C56.8902 119.604 56.7782 119.142 56.5542 118.75C56.3395 118.358 56.0549 118.059 55.7002 117.854C55.3455 117.649 54.9629 117.546 54.5522 117.546C54.1415 117.546 53.7589 117.649 53.4042 117.854C53.0495 118.05 52.7602 118.344 52.5362 118.736C52.3215 119.119 52.2142 119.576 52.2142 120.108C52.2142 120.64 52.3215 121.107 52.5362 121.508C52.7602 121.909 53.0495 122.217 53.4042 122.432C53.7682 122.637 54.1509 122.74 54.5522 122.74C54.9629 122.74 55.3455 122.637 55.7002 122.432C56.0549 122.227 56.3395 121.928 56.5542 121.536C56.7782 121.135 56.8902 120.668 56.8902 120.136ZM59.7645 120.108C59.7645 119.333 59.9231 118.647 60.2405 118.05C60.5671 117.453 61.0058 116.991 61.5565 116.664C62.1165 116.328 62.7371 116.16 63.4185 116.16C63.9225 116.16 64.4171 116.272 64.9025 116.496C65.3971 116.711 65.7891 117 66.0785 117.364V113.64H67.6885V124H66.0785V122.838C65.8171 123.211 65.4531 123.519 64.9865 123.762C64.5291 124.005 64.0018 124.126 63.4045 124.126C62.7325 124.126 62.1165 123.958 61.5565 123.622C61.0058 123.277 60.5671 122.801 60.2405 122.194C59.9231 121.578 59.7645 120.883 59.7645 120.108ZM66.0785 120.136C66.0785 119.604 65.9665 119.142 65.7425 118.75C65.5278 118.358 65.2431 118.059 64.8885 117.854C64.5338 117.649 64.1511 117.546 63.7405 117.546C63.3298 117.546 62.9471 117.649 62.5925 117.854C62.2378 118.05 61.9485 118.344 61.7245 118.736C61.5098 119.119 61.4025 119.576 61.4025 120.108C61.4025 120.64 61.5098 121.107 61.7245 121.508C61.9485 121.909 62.2378 122.217 62.5925 122.432C62.9565 122.637 63.3391 122.74 63.7405 122.74C64.1511 122.74 64.5338 122.637 64.8885 122.432C65.2431 122.227 65.5278 121.928 65.7425 121.536C65.9665 121.135 66.0785 120.668 66.0785 120.136ZM71.0808 117.406C71.3141 117.014 71.6221 116.711 72.0048 116.496C72.3968 116.272 72.8588 116.16 73.3908 116.16V117.812H72.9848C72.3594 117.812 71.8834 117.971 71.5568 118.288C71.2394 118.605 71.0808 119.156 71.0808 119.94V124H69.4848V116.286H71.0808V117.406ZM81.6278 119.954C81.6278 120.243 81.6091 120.505 81.5718 120.738H75.6778C75.7245 121.354 75.9531 121.849 76.3638 122.222C76.7745 122.595 77.2785 122.782 77.8758 122.782C78.7345 122.782 79.3411 122.423 79.6958 121.704H81.4178C81.1845 122.413 80.7598 122.997 80.1438 123.454C79.5371 123.902 78.7811 124.126 77.8758 124.126C77.1385 124.126 76.4758 123.963 75.8878 123.636C75.3091 123.3 74.8518 122.833 74.5158 122.236C74.1891 121.629 74.0258 120.929 74.0258 120.136C74.0258 119.343 74.1845 118.647 74.5018 118.05C74.8285 117.443 75.2811 116.977 75.8598 116.65C76.4478 116.323 77.1198 116.16 77.8758 116.16C78.6038 116.16 79.2525 116.319 79.8218 116.636C80.3911 116.953 80.8345 117.401 81.1518 117.98C81.4691 118.549 81.6278 119.207 81.6278 119.954ZM79.9618 119.45C79.9525 118.862 79.7425 118.391 79.3318 118.036C78.9211 117.681 78.4125 117.504 77.8058 117.504C77.2551 117.504 76.7838 117.681 76.3918 118.036C75.9998 118.381 75.7665 118.853 75.6918 119.45H79.9618ZM85.6984 124.126C85.0918 124.126 84.5458 124.019 84.0604 123.804C83.5844 123.58 83.2064 123.281 82.9264 122.908C82.6464 122.525 82.4971 122.101 82.4784 121.634H84.1304C84.1584 121.961 84.3124 122.236 84.5924 122.46C84.8818 122.675 85.2411 122.782 85.6704 122.782C86.1184 122.782 86.4638 122.698 86.7064 122.53C86.9584 122.353 87.0844 122.129 87.0844 121.858C87.0844 121.569 86.9444 121.354 86.6644 121.214C86.3938 121.074 85.9598 120.92 85.3624 120.752C84.7838 120.593 84.3124 120.439 83.9484 120.29C83.5844 120.141 83.2671 119.912 82.9964 119.604C82.7351 119.296 82.6044 118.89 82.6044 118.386C82.6044 117.975 82.7258 117.602 82.9684 117.266C83.2111 116.921 83.5564 116.65 84.0044 116.454C84.4618 116.258 84.9844 116.16 85.5724 116.16C86.4498 116.16 87.1544 116.384 87.6864 116.832C88.2278 117.271 88.5171 117.873 88.5544 118.638H86.9584C86.9304 118.293 86.7904 118.017 86.5384 117.812C86.2864 117.607 85.9458 117.504 85.5164 117.504C85.0964 117.504 84.7744 117.583 84.5504 117.742C84.3264 117.901 84.2144 118.111 84.2144 118.372C84.2144 118.577 84.2891 118.75 84.4384 118.89C84.5878 119.03 84.7698 119.142 84.9844 119.226C85.1991 119.301 85.5164 119.399 85.9364 119.52C86.4964 119.669 86.9538 119.823 87.3084 119.982C87.6724 120.131 87.9851 120.355 88.2464 120.654C88.5078 120.953 88.6431 121.349 88.6524 121.844C88.6524 122.283 88.5311 122.675 88.2884 123.02C88.0458 123.365 87.7004 123.636 87.2524 123.832C86.8138 124.028 86.2958 124.126 85.6984 124.126ZM92.877 124.126C92.2703 124.126 91.7243 124.019 91.239 123.804C90.763 123.58 90.385 123.281 90.105 122.908C89.825 122.525 89.6756 122.101 89.657 121.634H91.309C91.337 121.961 91.491 122.236 91.771 122.46C92.0603 122.675 92.4196 122.782 92.849 122.782C93.297 122.782 93.6423 122.698 93.885 122.53C94.137 122.353 94.263 122.129 94.263 121.858C94.263 121.569 94.123 121.354 93.843 121.214C93.5723 121.074 93.1383 120.92 92.541 120.752C91.9623 120.593 91.491 120.439 91.127 120.29C90.763 120.141 90.4456 119.912 90.175 119.604C89.9136 119.296 89.783 118.89 89.783 118.386C89.783 117.975 89.9043 117.602 90.147 117.266C90.3896 116.921 90.735 116.65 91.183 116.454C91.6403 116.258 92.163 116.16 92.751 116.16C93.6283 116.16 94.333 116.384 94.865 116.832C95.4063 117.271 95.6956 117.873 95.733 118.638H94.137C94.109 118.293 93.969 118.017 93.717 117.812C93.465 117.607 93.1243 117.504 92.695 117.504C92.275 117.504 91.953 117.583 91.729 117.742C91.505 117.901 91.393 118.111 91.393 118.372C91.393 118.577 91.4676 118.75 91.617 118.89C91.7663 119.03 91.9483 119.142 92.163 119.226C92.3776 119.301 92.695 119.399 93.115 119.52C93.675 119.669 94.1323 119.823 94.487 119.982C94.851 120.131 95.1636 120.355 95.425 120.654C95.6863 120.953 95.8216 121.349 95.831 121.844C95.831 122.283 95.7096 122.675 95.467 123.02C95.2243 123.365 94.879 123.636 94.431 123.832C93.9923 124.028 93.4743 124.126 92.877 124.126Z" fill="#4F4F4F"/>
<rect x="0.3" y="239.3" width="670.4" height="231.4" rx="8.7" fill="white" stroke="#CECECE" stroke-width="0.6"/>
<path d="M11.298 218.27V228H9.702V221.336L6.734 228H5.628L2.646 221.336V228H1.05V218.27H2.772L6.188 225.9L9.59 218.27H11.298ZM20.1657 223.954C20.1657 224.243 20.147 224.505 20.1097 224.738H14.2157C14.2624 225.354 14.491 225.849 14.9017 226.222C15.3124 226.595 15.8164 226.782 16.4137 226.782C17.2724 226.782 17.879 226.423 18.2337 225.704H19.9557C19.7224 226.413 19.2977 226.997 18.6817 227.454C18.075 227.902 17.319 228.126 16.4137 228.126C15.6764 228.126 15.0137 227.963 14.4257 227.636C13.847 227.3 13.3897 226.833 13.0537 226.236C12.727 225.629 12.5637 224.929 12.5637 224.136C12.5637 223.343 12.7224 222.647 13.0397 222.05C13.3664 221.443 13.819 220.977 14.3977 220.65C14.9857 220.323 15.6577 220.16 16.4137 220.16C17.1417 220.16 17.7904 220.319 18.3597 220.636C18.929 220.953 19.3724 221.401 19.6897 221.98C20.007 222.549 20.1657 223.207 20.1657 223.954ZM18.4997 223.45C18.4904 222.862 18.2804 222.391 17.8697 222.036C17.459 221.681 16.9504 221.504 16.3437 221.504C15.793 221.504 15.3217 221.681 14.9297 222.036C14.5377 222.381 14.3044 222.853 14.2297 223.45H18.4997ZM24.2363 228.126C23.6297 228.126 23.0837 228.019 22.5983 227.804C22.1223 227.58 21.7443 227.281 21.4643 226.908C21.1843 226.525 21.035 226.101 21.0163 225.634H22.6683C22.6963 225.961 22.8503 226.236 23.1303 226.46C23.4197 226.675 23.779 226.782 24.2083 226.782C24.6563 226.782 25.0017 226.698 25.2443 226.53C25.4963 226.353 25.6223 226.129 25.6223 225.858C25.6223 225.569 25.4823 225.354 25.2023 225.214C24.9317 225.074 24.4977 224.92 23.9003 224.752C23.3217 224.593 22.8503 224.439 22.4863 224.29C22.1223 224.141 21.805 223.912 21.5343 223.604C21.273 223.296 21.1423 222.89 21.1423 222.386C21.1423 221.975 21.2637 221.602 21.5063 221.266C21.749 220.921 22.0943 220.65 22.5423 220.454C22.9997 220.258 23.5223 220.16 24.1103 220.16C24.9877 220.16 25.6923 220.384 26.2243 220.832C26.7657 221.271 27.055 221.873 27.0923 222.638H25.4963C25.4683 222.293 25.3283 222.017 25.0763 221.812C24.8243 221.607 24.4837 221.504 24.0543 221.504C23.6343 221.504 23.3123 221.583 23.0883 221.742C22.8643 221.901 22.7523 222.111 22.7523 222.372C22.7523 222.577 22.827 222.75 22.9763 222.89C23.1257 223.03 23.3077 223.142 23.5223 223.226C23.737 223.301 24.0543 223.399 24.4743 223.52C25.0343 223.669 25.4917 223.823 25.8463 223.982C26.2103 224.131 26.523 224.355 26.7843 224.654C27.0457 224.953 27.181 225.349 27.1903 225.844C27.1903 226.283 27.069 226.675 26.8263 227.02C26.5837 227.365 26.2383 227.636 25.7903 227.832C25.3517 228.028 24.8337 228.126 24.2363 228.126ZM31.4148 228.126C30.8082 228.126 30.2622 228.019 29.7768 227.804C29.3008 227.58 28.9228 227.281 28.6428 226.908C28.3628 226.525 28.2135 226.101 28.1948 225.634H29.8468C29.8748 225.961 30.0288 226.236 30.3088 226.46C30.5982 226.675 30.9575 226.782 31.3868 226.782C31.8348 226.782 32.1802 226.698 32.4228 226.53C32.6748 226.353 32.8008 226.129 32.8008 225.858C32.8008 225.569 32.6608 225.354 32.3808 225.214C32.1102 225.074 31.6762 224.92 31.0788 224.752C30.5002 224.593 30.0288 224.439 29.6648 224.29C29.3008 224.141 28.9835 223.912 28.7128 223.604C28.4515 223.296 28.3208 222.89 28.3208 222.386C28.3208 221.975 28.4422 221.602 28.6848 221.266C28.9275 220.921 29.2728 220.65 29.7208 220.454C30.1782 220.258 30.7008 220.16 31.2888 220.16C32.1662 220.16 32.8708 220.384 33.4028 220.832C33.9442 221.271 34.2335 221.873 34.2708 222.638H32.6748C32.6468 222.293 32.5068 222.017 32.2548 221.812C32.0028 221.607 31.6622 221.504 31.2328 221.504C30.8128 221.504 30.4908 221.583 30.2668 221.742C30.0428 221.901 29.9308 222.111 29.9308 222.372C29.9308 222.577 30.0055 222.75 30.1548 222.89C30.3042 223.03 30.4862 223.142 30.7008 223.226C30.9155 223.301 31.2328 223.399 31.6528 223.52C32.2128 223.669 32.6702 223.823 33.0248 223.982C33.3888 224.131 33.7015 224.355 33.9628 224.654C34.2242 224.953 34.3595 225.349 34.3688 225.844C34.3688 226.283 34.2475 226.675 34.0048 227.02C33.7622 227.365 33.4168 227.636 32.9688 227.832C32.5302 228.028 32.0122 228.126 31.4148 228.126ZM35.2614 224.108C35.2614 223.333 35.42 222.647 35.7374 222.05C36.064 221.453 36.5027 220.991 37.0534 220.664C37.6134 220.328 38.2294 220.16 38.9014 220.16C39.508 220.16 40.0354 220.281 40.4834 220.524C40.9407 220.757 41.3047 221.051 41.5754 221.406V220.286H43.1854V228H41.5754V226.852C41.3047 227.216 40.936 227.519 40.4694 227.762C40.0027 228.005 39.4707 228.126 38.8734 228.126C38.2107 228.126 37.604 227.958 37.0534 227.622C36.5027 227.277 36.064 226.801 35.7374 226.194C35.42 225.578 35.2614 224.883 35.2614 224.108ZM41.5754 224.136C41.5754 223.604 41.4634 223.142 41.2394 222.75C41.0247 222.358 40.74 222.059 40.3854 221.854C40.0307 221.649 39.648 221.546 39.2374 221.546C38.8267 221.546 38.444 221.649 38.0894 221.854C37.7347 222.05 37.4454 222.344 37.2214 222.736C37.0067 223.119 36.8994 223.576 36.8994 224.108C36.8994 224.64 37.0067 225.107 37.2214 225.508C37.4454 225.909 37.7347 226.217 38.0894 226.432C38.4534 226.637 38.836 226.74 39.2374 226.74C39.648 226.74 40.0307 226.637 40.3854 226.432C40.74 226.227 41.0247 225.928 41.2394 225.536C41.4634 225.135 41.5754 224.668 41.5754 224.136ZM48.0896 220.16C48.687 220.16 49.2143 220.281 49.6716 220.524C50.1383 220.757 50.5023 221.051 50.7636 221.406V220.286H52.3736V228.126C52.3736 228.835 52.2243 229.465 51.9256 230.016C51.627 230.576 51.193 231.015 50.6236 231.332C50.0636 231.649 49.3916 231.808 48.6076 231.808C47.5623 231.808 46.6943 231.561 46.0036 231.066C45.313 230.581 44.921 229.918 44.8276 229.078H46.4096C46.531 229.479 46.7876 229.801 47.1796 230.044C47.581 230.296 48.057 230.422 48.6076 230.422C49.2516 230.422 49.7696 230.226 50.1616 229.834C50.563 229.442 50.7636 228.873 50.7636 228.126V226.838C50.493 227.202 50.1243 227.51 49.6576 227.762C49.2003 228.005 48.6776 228.126 48.0896 228.126C47.4176 228.126 46.8016 227.958 46.2416 227.622C45.691 227.277 45.2523 226.801 44.9256 226.194C44.6083 225.578 44.4496 224.883 44.4496 224.108C44.4496 223.333 44.6083 222.647 44.9256 222.05C45.2523 221.453 45.691 220.991 46.2416 220.664C46.8016 220.328 47.4176 220.16 48.0896 220.16ZM50.7636 224.136C50.7636 223.604 50.6516 223.142 50.4276 222.75C50.213 222.358 49.9283 222.059 49.5736 221.854C49.219 221.649 48.8363 221.546 48.4256 221.546C48.015 221.546 47.6323 221.649 47.2776 221.854C46.923 222.05 46.6336 222.344 46.4096 222.736C46.195 223.119 46.0876 223.576 46.0876 224.108C46.0876 224.64 46.195 225.107 46.4096 225.508C46.6336 225.909 46.923 226.217 47.2776 226.432C47.6416 226.637 48.0243 226.74 48.4256 226.74C48.8363 226.74 49.219 226.637 49.5736 226.432C49.9283 226.227 50.213 225.928 50.4276 225.536C50.6516 225.135 50.7636 224.668 50.7636 224.136ZM61.2399 223.954C61.2399 224.243 61.2213 224.505 61.1839 224.738H55.2899C55.3366 225.354 55.5653 225.849 55.9759 226.222C56.3866 226.595 56.8906 226.782 57.4879 226.782C58.3466 226.782 58.9533 226.423 59.3079 225.704H61.0299C60.7966 226.413 60.3719 226.997 59.7559 227.454C59.1493 227.902 58.3933 228.126 57.4879 228.126C56.7506 228.126 56.0879 227.963 55.4999 227.636C54.9213 227.3 54.4639 226.833 54.1279 226.236C53.8013 225.629 53.6379 224.929 53.6379 224.136C53.6379 223.343 53.7966 222.647 54.1139 222.05C54.4406 221.443 54.8933 220.977 55.4719 220.65C56.0599 220.323 56.7319 220.16 57.4879 220.16C58.2159 220.16 58.8646 220.319 59.4339 220.636C60.0033 220.953 60.4466 221.401 60.7639 221.98C61.0813 222.549 61.2399 223.207 61.2399 223.954ZM59.5739 223.45C59.5646 222.862 59.3546 222.391 58.9439 222.036C58.5333 221.681 58.0246 221.504 57.4179 221.504C56.8673 221.504 56.3959 221.681 56.0039 222.036C55.6119 222.381 55.3786 222.853 55.3039 223.45H59.5739Z" fill="#4F4F4F"/>
</svg>
